<?xml version="1.0" standalone="no"?>
<!DOCTYPE svg PUBLIC "-//W3C//DTD SVG 20010904//EN"
 "http://www.w3.org/TR/2001/REC-SVG-20010904/DTD/svg10.dtd">
<svg version="1.0" xmlns="http://www.w3.org/2000/svg"
 width="128.000000pt" height="128.000000pt" viewBox="0 0 128.000000 128.000000"
 preserveAspectRatio="xMidYMid meet">
<metadata>
Created by potrace 1.11, written by Peter Selinger 2001-2013
</metadata>
<g transform="translate(0.000000,128.000000) scale(0.100000,-0.100000)"
fill="#000000" stroke="none">
<path d="M400 1160 l0 -40 -40 0 -40 0 0 -40 0 -40 -40 0 -40 0 0 -40 0 -40
-40 0 -40 0 -1 -62 c-1 -35 -1 -71 0 -80 2 -15 -6 -18 -38 -18 l-41 0 0 -160
c0 -136 2 -160 15 -160 8 0 15 -5 15 -11 0 -5 -5 -7 -12 -3 -7 5 -8 3 -3 -6 6
-10 11 -10 20 3 22 30 40 20 41 -20 3 -108 8 -142 19 -133 7 6 23 9 36 7 18
-3 24 -11 25 -30 1 -15 -3 -24 -8 -21 -5 3 -6 15 -3 27 5 17 4 19 -4 7 -6 -8
-8 -22 -6 -31 3 -10 -1 -16 -10 -16 -11 0 -14 6 -9 16 3 9 8 22 11 29 6 15 -7
15 -27 -1 -18 -15 -26 -42 -9 -31 8 5 10 2 7 -7 -4 -11 5 -14 39 -15 27 0 48
-6 54 -15 5 -8 9 -9 9 -4 0 6 8 11 18 12 12 1 18 -6 19 -20 1 -56 2 -57 43
-57 l40 0 0 -40 0 -40 200 0 200 0 0 40 0 40 80 0 80 0 0 40 0 40 40 0 40 0 0
40 0 40 40 0 40 0 1 43 c1 23 1 59 1 80 -1 34 1 38 21 35 12 -2 28 -10 35 -18
10 -13 11 -12 5 4 -4 13 -3 17 5 12 9 -5 12 35 12 158 l0 166 -40 0 -40 0 0
80 0 80 -40 0 -40 0 0 40 0 40 -40 0 -40 0 0 40 0 40 -40 0 -40 0 0 40 0 40
-240 0 -240 0 0 -40z m-207 -875 c-3 -9 -8 -14 -10 -11 -3 3 -2 9 2 15 9 16
15 13 8 -4z"/>
<path d="M1140 452 c9 -19 30 -23 30 -5 0 4 -3 3 -7 0 -3 -4 -12 1 -20 11 -13
15 -13 15 -3 -6z"/>
<path d="M125 440 c3 -5 8 -10 11 -10 2 0 4 5 4 10 0 6 -5 10 -11 10 -5 0 -7
-4 -4 -10z"/>
<path d="M1130 426 c0 -3 9 -10 20 -16 11 -6 20 -8 20 -6 0 3 -9 10 -20 16
-11 6 -20 8 -20 6z"/>
<path d="M1177 419 c7 -7 15 -10 18 -7 3 3 -2 9 -12 12 -14 6 -15 5 -6 -5z"/>
<path d="M250 205 c0 -8 29 -12 39 -5 9 5 4 8 -13 8 -14 0 -26 -2 -26 -3z"/>
<path d="M248 183 c6 -2 9 -10 6 -15 -4 -7 -2 -8 5 -4 13 9 5 26 -12 25 -9 0
-8 -2 1 -6z"/>
<path d="M294 182 c3 -5 0 -13 -6 -15 -9 -4 -10 -6 -1 -6 17 -1 25 16 12 25
-7 4 -9 3 -5 -4z"/>
</g>
</svg>
